<svg width="28" height="28" viewBox="0 0 28 28" fill="none" xmlns="http://www.w3.org/2000/svg">
<circle cx="14" cy="14" r="14" fill="white"/>
<circle cx="14" cy="14" r="13.5" stroke="black" stroke-opacity="0.2"/>
<path fill-rule="evenodd" clip-rule="evenodd" d="M13.9799 7C10.1119 7 7 10.1119 7 13.9799C7 17.0627 9.00672 19.6801 11.7696 20.6108C12.1186 20.669 12.2349 20.4654 12.2349 20.2618C12.2349 20.0873 12.2349 19.6511 12.2349 19.0694C10.2864 19.5056 9.87921 18.1388 9.87921 18.1388C9.55929 17.3244 9.09397 17.1209 9.09397 17.1209C8.45414 16.6846 9.15213 16.6846 9.15213 16.6846C9.85012 16.7428 10.2282 17.4117 10.2282 17.4117C10.8389 18.4877 11.8568 18.1678 12.264 17.9933C12.3222 17.528 12.4967 17.2372 12.7002 17.0627C11.1589 16.8882 9.53021 16.2774 9.53021 13.6018C9.53021 12.8457 9.79196 12.2058 10.2573 11.7405C10.1991 11.566 9.93737 10.868 10.3155 9.87921C10.3155 9.87921 10.8971 9.70471 12.2349 10.6063C12.7875 10.4609 13.3982 10.3736 13.9799 10.3736C14.5616 10.3736 15.1723 10.4609 15.7249 10.6063C17.0627 9.70471 17.6443 9.87921 17.6443 9.87921C18.0224 10.8389 17.7898 11.5369 17.7025 11.7405C18.1387 12.2349 18.4296 12.8457 18.4296 13.6018C18.4296 16.2774 16.8009 16.8591 15.2305 17.0336C15.4922 17.2372 15.6958 17.6734 15.6958 18.3132C15.6958 19.2439 15.6958 20.0001 15.6958 20.2327C15.6958 20.4072 15.8121 20.6399 16.1902 20.5817C18.9531 19.6801 20.9598 17.0627 20.9598 13.9799C20.9598 10.1119 17.8479 7 13.9799 7Z" fill="black"/>
</svg>
